<?xml version="1.0" standalone="no"?>
<!DOCTYPE svg PUBLIC "-//W3C//DTD SVG 20010904//EN"
 "http://www.w3.org/TR/2001/REC-SVG-20010904/DTD/svg10.dtd">
<svg version="1.0" xmlns="http://www.w3.org/2000/svg"
 width="1000.000000pt" height="379.000000pt"  viewBox="0 0 1676.000000 379.000000"
 preserveAspectRatio="xMidYMid meet">

<g transform="translate(0.000000,379.000000) scale(0.100000,-0.100000)"
fill="#00000" stroke="none">
<path fill="#236DF0" d="M1730 3768 c-58 -5 -157 -20 -220 -34 -767 -171 -1327 -777 -1436
-1553 -22 -157 -14 -472 15 -615 162 -787 751 -1371 1541 -1528 99 -19 146
-23 340 -23 192 0 242 4 344 23 783 149 1373 759 1491 1539 8 57 15 105 15
107 0 3 269 2 597 -1 584 -6 596 -6 589 13 -28 72 -38 144 -33 234 4 52 9 107
13 122 l6 28 -588 2 -588 3 -17 95 c-58 329 -198 640 -399 885 -77 94 -248
258 -340 327 -293 220 -631 348 -995 378 -137 11 -188 11 -335 -2z m387 -399
c188 -25 376 -89 538 -181 134 -76 228 -149 345 -268 207 -210 334 -446 403
-750 30 -131 32 -461 3 -590 -61 -280 -182 -516 -366 -713 -89 -95 -277 -247
-305 -247 -3 0 -5 28 -5 63 0 80 -17 219 -34 278 -48 163 -157 249 -388 306
l-106 26 -48 -32 c-65 -42 -114 -54 -209 -49 -79 4 -143 27 -187 65 -15 14
-26 13 -93 -2 -344 -76 -436 -188 -460 -557 l-7 -107 -61 41 c-349 235 -578
577 -659 980 -32 159 -31 427 0 573 67 305 189 532 402 746 218 220 476 355
780 409 121 21 337 26 457 9z"/>
<path fill="#236DF0" d="M1867 2310 c-151 -24 -242 -108 -283 -260 -25 -93 -25 -304 -1 -385
42 -138 128 -245 242 -300 51 -26 72 -30 140 -30 69 0 89 5 148 32 122 58 219
190 248 341 17 91 7 290 -20 372 -49 151 -154 223 -340 234 -42 3 -102 1 -134
-4z"/>
<path fill="#F72F39" d="M7925 2623 c-208 -56 -326 -161 -370 -328 -15 -58 -17 -161 -15 -962
l0 -23 185 0 185 0 2 283 c1 155 1 330 -1 390 -7 216 15 287 89 287 74 0 112
-52 89 -119 -9 -24 -21 -35 -60 -48 l-49 -18 0 -164 0 -164 98 6 c188 11 299
76 364 214 79 167 49 372 -75 509 -32 35 -72 64 -131 94 -82 42 -89 43 -188
46 -57 2 -112 0 -123 -3z"/>
<path fill="#F72F39" d="M8963 2615 c-128 -28 -233 -107 -290 -219 -48 -95 -53 -146 -53 -634
l0 -452 188 2 187 3 3 153 3 152 54 0 55 0 0 165 0 165 -55 0 -55 0 0 110 c0
135 13 175 62 188 45 11 76 4 91 -22 9 -15 13 -142 17 -466 l5 -445 188 -3
187 -2 0 477 c0 508 -4 552 -50 644 -28 54 -85 115 -134 144 -88 52 -268 69
-403 40z"/>
<path fill="#F72F39"  d="M10103 2615 c-116 -32 -214 -103 -270 -196 -60 -101 -62 -122 -63
-637 l-1 -467 182 -3 c130 -2 185 1 190 9 4 6 7 206 7 444 0 343 3 436 13 453
31 50 117 46 138 -6 8 -19 12 -169 14 -462 l2 -435 188 -3 187 -2 0 467 c0
507 -3 541 -56 644 -30 61 -97 130 -153 158 -94 49 -270 65 -378 36z"/>
<path    fill="#F72F39"    d="M5260 1955 l0 -645 190 0 190 0 2 473 3 472 66 -1 c63 -2 119 -20
134 -45 12 -19 9 -77 -4 -103 -15 -28 -49 -44 -101 -48 l-35 -3 -3 -160 -2
-160 94 -210 94 -210 197 -3 197 -2 -6 25 c-6 25 -177 442 -198 483 -11 21 -9
27 24 55 178 156 183 437 10 604 -108 105 -192 123 -573 123 l-279 0 0 -645z"/>
<path   fill="#F72F39"    d="M6393 2123 c4 -510 5 -520 57 -627 81 -168 288 -249 514 -201 127 27
213 86 287 198 66 100 69 133 69 651 l0 456 -190 0 -189 0 -3 -449 c-3 -429
-4 -450 -22 -470 -29 -32 -92 -26 -120 12 -20 28 -21 39 -24 468 l-3 439 -190
0 -190 0 4 -477z"/>
<path   fill="#F72F39"    d="M10930 1956 l0 -646 190 0 190 0 0 461 0 461 133 -4 c112 -3 140 -7
185 -27 103 -46 148 -131 140 -265 -10 -160 -102 -236 -305 -252 l-82 -7 -7
-54 c-7 -59 2 -302 12 -312 3 -3 54 -6 112 -5 231 2 410 87 537 256 84 112
125 244 125 405 0 305 -171 522 -475 605 -73 19 -111 22 -417 26 l-338 4 0
-646z"/>
<path   fill="#F72F39"    d="M12600 2586 c-118 -25 -209 -101 -254 -209 -19 -49 -21 -73 -24 -382
-4 -345 2 -414 39 -487 44 -86 115 -141 224 -174 49 -15 97 -18 264 -19 l204
0 1 180 1 180 -173 5 c-189 5 -192 6 -192 66 0 56 19 63 185 66 l150 3 3 142
3 142 -147 3 c-130 3 -147 5 -160 22 -20 28 -17 62 8 86 20 18 35 20 170 20
81 0 148 3 148 8 4 57 5 340 2 350 -6 16 -374 15 -452 -2z"/>
<path   fill="#F72F39"   d="M13280 1955 l0 -645 190 0 190 0 0 245 0 245 23 5 c13 4 37 5 53 3
l29 -3 3 168 2 167 -55 0 -55 0 0 230 0 230 -190 0 -190 0 0 -645z"/>
<path  fill="#F72F39"   d="M13840 1955 l0 -645 188 2 187 3 3 643 2 642 -190 0 -190 0 0 -645z"/>
<path  fill="#F72F39"  d="M14480 1955 l0 -645 188 2 187 3 3 643 2 642 -190 0 -190 0 0 -645z"/>
<path fill="#236DF0"  d="M15067 2043 c14 -68 8 -274 -10 -320 l-16 -43 778 0 c868 0 852 -1
910 65 30 35 31 38 31 137 l0 100 -38 38 c-21 21 -55 43 -77 49 -28 7 -280 11
-813 11 l-773 0 8 -37z"/>
<path fill="#F72F39" d="M7554 946 c-2 -6 -5 -69 -6 -141 -3 -116 -5 -130 -21 -133 -12 -3
-20 4 -24 17 -5 18 -13 21 -64 21 -58 0 -59 -1 -59 -27 0 -16 9 -43 20 -61 54
-89 227 -80 260 12 11 33 14 315 3 317 -43 7 -105 4 -109 -5z"/>
<path fill="#F72F39" d="M8000 935 c-80 -45 -115 -129 -96 -230 14 -74 107 -144 194 -145 195
-1 274 241 119 364 -32 26 -48 31 -105 34 -57 2 -74 -1 -112 -23z m150 -105
c24 -24 34 -62 26 -95 -25 -99 -156 -78 -156 25 0 75 81 119 130 70z"/>
<path fill="#F72F39" d="M8530 759 l0 -199 113 0 c177 0 220 22 219 113 -1 34 -6 47 -31 67
-28 24 -29 26 -12 37 30 19 46 78 31 114 -21 49 -59 62 -197 65 l-123 2 0
-199z m195 71 c0 -22 -5 -25 -37 -28 -36 -3 -38 -2 -38 28 0 30 2 31 38 28 32
-3 37 -6 37 -28z m3 -119 c8 -5 12 -17 10 -27 -2 -14 -13 -20 -46 -22 -41 -3
-42 -2 -42 27 0 28 3 31 33 31 17 0 38 -4 45 -9z"/>
<path fill="#F72F39" d="M9368 950 c-2 -5 -2 -96 0 -200 l3 -191 57 3 57 3 3 63 3 62 44 0
c57 0 107 24 130 63 22 37 23 109 1 142 -32 49 -60 58 -181 61 -66 2 -115 -1
-117 -6z m176 -96 c19 -7 21 -45 4 -62 -15 -15 -58 -16 -59 -2 -1 6 -1 21 -1
35 0 14 0 27 1 30 1 7 36 6 55 -1z"/>
<path fill="#F72F39" d="M9883 945 c2 -5 30 -89 62 -185 32 -96 62 -181 68 -187 6 -8 36 -13
83 -13 41 0 74 1 74 3 0 1 29 88 64 192 35 104 62 193 60 197 -4 7 -112 3
-120 -4 -2 -3 -20 -59 -41 -126 -20 -67 -39 -122 -42 -122 -4 0 -22 51 -40
113 -18 61 -37 119 -41 127 -10 17 -133 22 -127 5z"/>
<path fill="#F72F39" d="M10496 953 c-3 -4 -6 -26 -6 -50 l0 -43 49 0 c37 0 50 -4 55 -17 4
-9 6 -76 5 -148 l-1 -130 58 0 59 0 0 50 c1 28 2 94 3 148 l2 97 50 0 50 0 0
49 0 50 -159 0 c-87 0 -162 -3 -165 -6z"/>
<path fill="#F72F39" d="M11650 760 l0 -201 118 3 117 3 3 43 3 42 -60 0 -60 0 -3 153 -3 152
-57 3 -58 3 0 -201z"/>
<path fill="#F72F39" d="M12090 908 l0 -48 50 0 50 0 0 -150 0 -150 60 0 60 0 0 150 0 150 50
0 c45 0 50 3 56 25 3 14 3 36 0 50 l-6 25 -160 -2 -160 -2 0 -48z"/>
<path fill="#F72F39" d="M12658 953 l-28 -4 0 -195 0 -194 91 0 c49 0 111 5 136 11 111 28
173 158 128 266 -34 81 -84 108 -210 115 -49 3 -102 4 -117 1z m176 -114 c30
-14 50 -65 40 -103 -9 -36 -50 -66 -90 -66 l-34 0 0 90 0 90 30 0 c16 0 40 -5
54 -11z"/>
<path fill="#F72F39" d="M11028 628 c-3 -29 -3 -56 -1 -60 2 -5 29 -8 59 -8 l54 0 0 60 0 60
-54 0 -54 0 -4 -52z"/>
<path fill="#F72F39" d="M13216 630 c-4 -28 -4 -55 -1 -60 3 -6 31 -10 61 -10 l54 0 0 60 0
60 -54 0 -53 0 -7 -50z"/>
</g>
</svg>
